<?xml version="1.0" encoding="UTF-8"?>
<svg viewBox="0 0 1000 720" xmlns="http://www.w3.org/2000/svg">
  <defs>
    <pattern id="dots" x="0" y="0" width="16" height="16" patternUnits="userSpaceOnUse">
      <circle cx="8" cy="8" r="0.8" fill="#a09080" opacity="0.15"/>
    </pattern>
    <filter id="shadow">
      <feDropShadow dx="0" dy="3" stdDeviation="5" flood-color="#000" flood-opacity="0.07"/>
    </filter>
    <marker id="arrow-ink" markerWidth="10" markerHeight="8" refX="9" refY="4" orient="auto">
      <path d="M0,0 L10,4 L0,8 Z" fill="#1a1f36" opacity="0.55"/>
    </marker>
    <marker id="arrow-green" markerWidth="10" markerHeight="8" refX="9" refY="4" orient="auto">
      <path d="M0,0 L10,4 L0,8 Z" fill="#3a7a5a"/>
    </marker>
    <marker id="arrow-rose" markerWidth="10" markerHeight="8" refX="9" refY="4" orient="auto">
      <path d="M0,0 L10,4 L0,8 Z" fill="#b07070"/>
    </marker>
    <marker id="diamond" markerWidth="12" markerHeight="10" refX="12" refY="5" orient="auto">
      <path d="M0,5 L6,0 L12,5 L6,10 Z" fill="#1a1f36" opacity="0.5"/>
    </marker>
  </defs>

  <!-- ====== BACKGROUND ====== -->
  <rect width="1000" height="720" fill="#f4f0ea"/>
  <rect width="1000" height="720" fill="url(#dots)"/>
  <text x="500" y="38" text-anchor="middle" font-family="monospace" font-size="12" fill="#d94f30" letter-spacing="2">NODE TYPES &amp; RELATIONSHIPS</text>

  <!-- ====== PACKAGE CONTAINER ====== -->
  <rect x="40" y="55" width="540" height="430" rx="10" stroke="#b0b0b0" stroke-width="2" stroke-dasharray="8,5" fill="none"/>
  <rect x="55" y="47" width="130" height="20" rx="3" fill="#f4f0ea"/>
  <text x="120" y="62" text-anchor="middle" font-family="monospace" font-size="11" fill="#707070">package: models</text>

  <!-- ====== EDGES (all drawn before nodes) ====== -->

  <!-- 1. extends: Dog -> Animal -->
  <line x1="350" y1="140" x2="264" y2="140" stroke="#1a1f36" stroke-width="2" opacity="0.55" marker-end="url(#arrow-ink)"/>
  <rect x="280" y="127" width="58" height="18" rx="3" fill="#f4f0ea"/>
  <text x="309" y="140" text-anchor="middle" font-family="monospace" font-size="11" fill="#1a1f36">extends</text>

  <!-- 2. member: Dog -> bark() -->
  <path d="M 420 180 L 420 210 Q 420 220 410 220 L 400 220 Q 395 220 395 230 L 395 240" stroke="#1a1f36" stroke-width="1.5" fill="none" opacity="0.45" marker-end="url(#arrow-ink)"/>
  <rect x="430" y="201" width="55" height="18" rx="3" fill="#f4f0ea"/>
  <text x="457" y="214" text-anchor="middle" font-family="monospace" font-size="11" fill="#1a1f36">member</text>

  <!-- 3. member: Dog -> breed -->
  <path d="M 400 180 L 400 210 Q 400 220 380 220 L 200 220 Q 180 220 180 230 L 180 240" stroke="#1a1f36" stroke-width="1.5" fill="none" opacity="0.45" marker-end="url(#arrow-ink)"/>

  <!-- 4. has-a: Dog -> Collar -->
  <path d="M 445 180 L 445 355 Q 445 370 430 370 L 210 370 Q 195 370 195 380" stroke="#1a1f36" stroke-width="2" fill="none" opacity="0.45" marker-end="url(#diamond)"/>
  <rect x="450" y="274" width="42" height="18" rx="3" fill="#f4f0ea"/>
  <text x="471" y="287" text-anchor="middle" font-family="monospace" font-size="11" fill="#1a1f36">has-a</text>

  <!-- 5. implements: Dog -> Drawable -->
  <line x1="540" y1="130" x2="656" y2="130" stroke="#1a1f36" stroke-width="2" stroke-dasharray="8,5" opacity="0.45" marker-end="url(#arrow-ink)"/>
  <rect x="566" y="117" width="76" height="18" rx="3" fill="#f4f0ea"/>
  <text x="604" y="130" text-anchor="middle" font-family="monospace" font-size="11" fill="#1a1f36">implements</text>

  <!-- 6. tests: TestDog -> Dog -->
  <path d="M 660 270 L 600 270 Q 580 270 580 250 L 580 160 Q 580 145 544 145" stroke="#3a7a5a" stroke-width="2.5" fill="none" opacity="0.6" marker-end="url(#arrow-green)"/>
  <rect x="584" y="204" width="40" height="18" rx="3" fill="#f4f0ea"/>
  <text x="604" y="217" text-anchor="middle" font-family="monospace" font-size="11" fill="#3a7a5a">tests</text>

  <!-- 7. uses: Dog -> persistence -->
  <line x1="445" y1="180" x2="445" y2="376" stroke="#1a1f36" stroke-width="1.5" stroke-dasharray="4,4" fill="none" opacity="0.35" marker-end="url(#arrow-ink)"/>
  <rect x="450" y="334" width="34" height="18" rx="3" fill="#f4f0ea"/>
  <text x="467" y="347" text-anchor="middle" font-family="monospace" font-size="11" fill="#1a1f36">uses</text>

  <!-- 8. context: Context -> Dog -->
  <path d="M 660 430 L 600 430 Q 580 430 580 410 L 580 360 Q 580 340 540 340 L 480 340 Q 460 340 460 320 L 460 184" stroke="#b07070" stroke-width="1.5" stroke-dasharray="6,4" fill="none" opacity="0.5" marker-end="url(#arrow-rose)"/>
  <rect x="517" y="374" width="55" height="18" rx="3" fill="#f4f0ea"/>
  <text x="544" y="387" text-anchor="middle" font-family="monospace" font-size="11" fill="#b07070">context</text>

  <!-- ====== NODES (all drawn after edges) ====== -->

  <!-- Animal (sage/class) -->
  <g>
    <rect x="70" y="100" width="190" height="80" rx="10" fill="white" stroke="#8cb88c" stroke-width="2.5" filter="url(#shadow)"/>
    <rect x="70" y="100" width="190" height="6" rx="10 10 0 0" fill="#8cb88c"/>
    <text x="165" y="136" text-anchor="middle" font-family="sans-serif" font-size="18" font-weight="700" fill="#2d5a2d">Animal</text>
    <text x="165" y="157" text-anchor="middle" font-family="sans-serif" font-size="12" fill="#2d5a2d">class</text>
  </g>

  <!-- Dog (sage/class) -->
  <g>
    <rect x="350" y="100" width="190" height="80" rx="10" fill="white" stroke="#8cb88c" stroke-width="2.5" filter="url(#shadow)"/>
    <rect x="350" y="100" width="190" height="6" rx="10 10 0 0" fill="#8cb88c"/>
    <text x="445" y="136" text-anchor="middle" font-family="sans-serif" font-size="18" font-weight="700" fill="#2d5a2d">Dog</text>
    <text x="445" y="157" text-anchor="middle" font-family="sans-serif" font-size="12" fill="#2d5a2d">class</text>
  </g>

  <!-- bark() (lavender/method) -->
  <g>
    <rect x="310" y="240" width="170" height="75" rx="10" fill="white" stroke="#b898c8" stroke-width="2.5" filter="url(#shadow)"/>
    <rect x="310" y="240" width="170" height="6" rx="10 10 0 0" fill="#b898c8"/>
    <text x="395" y="275" text-anchor="middle" font-family="sans-serif" font-size="17" font-weight="700" fill="#5a3a6a">bark()</text>
    <text x="395" y="297" text-anchor="middle" font-family="sans-serif" font-size="12" fill="#5a3a6a">method</text>
  </g>

  <!-- breed (wheat/field) -->
  <g>
    <rect x="100" y="240" width="160" height="75" rx="10" fill="white" stroke="#d0c888" stroke-width="2.5" filter="url(#shadow)"/>
    <rect x="100" y="240" width="160" height="6" rx="10 10 0 0" fill="#d0c888"/>
    <text x="180" y="275" text-anchor="middle" font-family="sans-serif" font-size="17" font-weight="700" fill="#6a5a1a">breed</text>
    <text x="180" y="297" text-anchor="middle" font-family="sans-serif" font-size="12" fill="#6a5a1a">field</text>
  </g>

  <!-- Collar (sage/class) -->
  <g>
    <rect x="100" y="380" width="190" height="80" rx="10" fill="white" stroke="#8cb88c" stroke-width="2.5" filter="url(#shadow)"/>
    <rect x="100" y="380" width="190" height="6" rx="10 10 0 0" fill="#8cb88c"/>
    <text x="195" y="416" text-anchor="middle" font-family="sans-serif" font-size="18" font-weight="700" fill="#2d5a2d">Collar</text>
    <text x="195" y="437" text-anchor="middle" font-family="sans-serif" font-size="12" fill="#2d5a2d">class</text>
  </g>

  <!-- persistence (module) -->
  <g>
    <rect x="350" y="380" width="190" height="80" rx="10" fill="white" stroke="#b0b0b0" stroke-width="2.5" filter="url(#shadow)"/>
    <rect x="350" y="380" width="190" height="6" rx="10 10 0 0" fill="#b0b0b0"/>
    <text x="445" y="413" text-anchor="middle" font-family="sans-serif" font-size="12" font-style="italic" fill="#1a1f36">&#171;module&#187;</text>
    <text x="445" y="437" text-anchor="middle" font-family="sans-serif" font-size="18" font-weight="600" fill="#1a1f36">persistence</text>
  </g>

  <!-- Drawable (sky/interface) -->
  <g>
    <rect x="660" y="100" width="200" height="80" rx="10" fill="white" stroke="#7ea8d0" stroke-width="2.5" filter="url(#shadow)"/>
    <rect x="660" y="100" width="200" height="6" rx="10 10 0 0" fill="#7ea8d0"/>
    <text x="760" y="130" text-anchor="middle" font-family="sans-serif" font-size="12" font-style="italic" fill="#2a5a7a">&#171;interface&#187;</text>
    <text x="760" y="153" text-anchor="middle" font-family="sans-serif" font-size="18" font-weight="700" fill="#2a5a7a">Drawable</text>
  </g>

  <!-- TestDog (mint/test) -->
  <g>
    <rect x="660" y="240" width="200" height="80" rx="10" fill="white" stroke="#7ac0a0" stroke-width="2.5" filter="url(#shadow)"/>
    <rect x="660" y="240" width="200" height="6" rx="10 10 0 0" fill="#7ac0a0"/>
    <text x="760" y="276" text-anchor="middle" font-family="sans-serif" font-size="18" font-weight="700" fill="#1a5a3a">TestDog</text>
    <text x="760" y="300" text-anchor="middle" font-family="sans-serif" font-size="12" fill="#1a5a3a">test</text>
  </g>

  <!-- Context (rose/context, dashed border) -->
  <g>
    <rect x="660" y="390" width="230" height="90" rx="10" fill="white" stroke="#d4a0a0" stroke-width="2.5" stroke-dasharray="8,5" filter="url(#shadow)"/>
    <rect x="660" y="390" width="230" height="6" rx="10 10 0 0" fill="#d4a0a0"/>
    <text x="775" y="418" text-anchor="middle" font-family="sans-serif" font-size="18" font-weight="700" fill="#8a4a4a">context</text>
    <text x="775" y="442" text-anchor="middle" font-family="sans-serif" font-size="14" font-style="italic" fill="#8a4a4a">Create dog management</text>
    <text x="775" y="462" text-anchor="middle" font-family="sans-serif" font-size="14" font-style="italic" fill="#8a4a4a">application</text>
  </g>

  <!-- ====== LEGEND ====== -->
  <rect x="40" y="520" width="920" height="170" rx="10" fill="white" stroke="#e2ddd5" stroke-width="1.5" filter="url(#shadow)"/>

  <!-- Row 1: Node Types -->
  <text x="70" y="550" font-family="sans-serif" font-size="13" font-weight="700" fill="#1a1f36">Node Types</text>

  <!-- class swatch -->
  <rect x="70" y="562" width="24" height="24" rx="4" fill="white" stroke="#8cb88c" stroke-width="1.5"/>
  <rect x="70" y="562" width="24" height="4" rx="4 4 0 0" fill="#8cb88c"/>
  <text x="100" y="579" font-family="sans-serif" font-size="11" fill="#1a1f36">class</text>

  <!-- interface swatch -->
  <rect x="170" y="562" width="24" height="24" rx="4" fill="white" stroke="#7ea8d0" stroke-width="1.5"/>
  <rect x="170" y="562" width="24" height="4" rx="4 4 0 0" fill="#7ea8d0"/>
  <text x="200" y="579" font-family="sans-serif" font-size="11" fill="#1a1f36">interface</text>

  <!-- method swatch -->
  <rect x="290" y="562" width="24" height="24" rx="4" fill="white" stroke="#b898c8" stroke-width="1.5"/>
  <rect x="290" y="562" width="24" height="4" rx="4 4 0 0" fill="#b898c8"/>
  <text x="320" y="579" font-family="sans-serif" font-size="11" fill="#1a1f36">method</text>

  <!-- field swatch -->
  <rect x="400" y="562" width="24" height="24" rx="4" fill="white" stroke="#d0c888" stroke-width="1.5"/>
  <rect x="400" y="562" width="24" height="4" rx="4 4 0 0" fill="#d0c888"/>
  <text x="430" y="579" font-family="sans-serif" font-size="11" fill="#1a1f36">field</text>

  <!-- test swatch -->
  <rect x="490" y="562" width="24" height="24" rx="4" fill="white" stroke="#7ac0a0" stroke-width="1.5"/>
  <rect x="490" y="562" width="24" height="4" rx="4 4 0 0" fill="#7ac0a0"/>
  <text x="520" y="579" font-family="sans-serif" font-size="11" fill="#1a1f36">test</text>

  <!-- context swatch (dashed border) -->
  <rect x="580" y="562" width="24" height="24" rx="4" fill="white" stroke="#d4a0a0" stroke-width="1.5" stroke-dasharray="4,3"/>
  <rect x="580" y="562" width="24" height="4" rx="4 4 0 0" fill="#d4a0a0"/>
  <text x="610" y="579" font-family="sans-serif" font-size="11" fill="#1a1f36">context</text>

  <!-- package swatch (dashed border) -->
  <rect x="690" y="562" width="24" height="24" rx="4" fill="white" stroke="#b0b0b0" stroke-width="1.5" stroke-dasharray="4,3"/>
  <rect x="690" y="562" width="24" height="4" rx="4 4 0 0" fill="#b0b0b0"/>
  <text x="720" y="579" font-family="sans-serif" font-size="11" fill="#1a1f36">package</text>

  <!-- module swatch -->
  <rect x="810" y="562" width="24" height="24" rx="4" fill="white" stroke="#b0b0b0" stroke-width="1.5"/>
  <rect x="810" y="562" width="24" height="4" rx="4 4 0 0" fill="#b0b0b0"/>
  <text x="840" y="579" font-family="sans-serif" font-size="11" fill="#1a1f36">module</text>

  <!-- Row 2: Edge Types -->
  <text x="70" y="620" font-family="sans-serif" font-size="13" font-weight="700" fill="#1a1f36">Edge Types</text>

  <!-- extends -->
  <line x1="70" y1="638" x2="105" y2="638" stroke="#1a1f36" stroke-width="2" opacity="0.55" marker-end="url(#arrow-ink)"/>
  <text x="115" y="642" font-family="sans-serif" font-size="11" fill="#1a1f36">extends</text>

  <!-- implements -->
  <line x1="200" y1="638" x2="235" y2="638" stroke="#1a1f36" stroke-width="2" stroke-dasharray="8,5" opacity="0.45" marker-end="url(#arrow-ink)"/>
  <text x="245" y="642" font-family="sans-serif" font-size="11" fill="#1a1f36">implements</text>

  <!-- has-a -->
  <line x1="350" y1="638" x2="385" y2="638" stroke="#1a1f36" stroke-width="2" opacity="0.45" marker-end="url(#diamond)"/>
  <text x="395" y="642" font-family="sans-serif" font-size="11" fill="#1a1f36">has-a</text>

  <!-- uses -->
  <line x1="460" y1="638" x2="495" y2="638" stroke="#1a1f36" stroke-width="1.5" stroke-dasharray="4,4" opacity="0.35" marker-end="url(#arrow-ink)"/>
  <text x="505" y="642" font-family="sans-serif" font-size="11" fill="#1a1f36">uses</text>

  <!-- member -->
  <line x1="560" y1="638" x2="595" y2="638" stroke="#1a1f36" stroke-width="1.5" opacity="0.45" marker-end="url(#arrow-ink)"/>
  <text x="605" y="642" font-family="sans-serif" font-size="11" fill="#1a1f36">member</text>

  <!-- tests -->
  <line x1="690" y1="638" x2="725" y2="638" stroke="#3a7a5a" stroke-width="2.5" opacity="0.6" marker-end="url(#arrow-green)"/>
  <text x="735" y="642" font-family="sans-serif" font-size="11" fill="#1a1f36">tests</text>

  <!-- context -->
  <line x1="790" y1="638" x2="825" y2="638" stroke="#b07070" stroke-width="1.5" stroke-dasharray="6,4" opacity="0.5" marker-end="url(#arrow-rose)"/>
  <text x="835" y="642" font-family="sans-serif" font-size="11" fill="#1a1f36">context</text>

  <!-- Footer note -->
  <text x="70" y="673" font-family="sans-serif" font-size="11" font-style="italic" fill="#8a8078">Colored top bars indicate node kind. Edge style encodes the relationship type.</text>
</svg>
